<?xml version="1.0" standalone="no"?>
<!DOCTYPE svg PUBLIC "-//W3C//DTD SVG 20010904//EN"
 "http://www.w3.org/TR/2001/REC-SVG-20010904/DTD/svg10.dtd">
<svg version="1.0" xmlns="http://www.w3.org/2000/svg"
 width="1235.000000pt" height="1229.000000pt" viewBox="0 0 1235.000000 1229.000000"
 preserveAspectRatio="xMidYMid meet">
<metadata>
Created by potrace 1.16, written by Peter Selinger 2001-2019
</metadata>
<g transform="translate(0.000000,1229.000000) scale(0.100000,-0.100000)"
fill="#000000" stroke="none">
<path d="M0 6145 l0 -6145 6175 0 6175 0 0 6145 0 6145 -6175 0 -6175 0 0
-6145z m6530 5046 c247 -14 538 -48 640 -75 30 -7 78 -17 105 -21 28 -3 91
-17 140 -31 50 -13 146 -39 215 -56 69 -18 128 -36 131 -41 3 -5 8 -8 10 -6 8
5 124 -35 194 -66 17 -8 57 -21 90 -30 33 -9 67 -23 75 -30 8 -7 47 -24 85
-39 108 -40 265 -117 304 -147 13 -11 29 -19 35 -19 6 0 36 -13 66 -30 30 -16
66 -35 80 -42 14 -6 33 -18 43 -27 20 -17 52 -36 87 -51 13 -6 27 -14 30 -18
10 -13 65 -48 112 -72 26 -13 60 -36 75 -52 15 -15 32 -28 38 -28 6 0 32 -18
59 -40 26 -22 52 -40 56 -40 5 0 19 -9 32 -20 145 -121 174 -146 178 -151 3
-3 28 -23 55 -45 106 -85 372 -345 478 -467 26 -30 64 -73 85 -95 20 -22 46
-52 57 -66 11 -15 31 -41 45 -59 76 -97 90 -117 90 -126 0 -5 8 -16 18 -23 25
-17 89 -106 103 -140 6 -16 14 -28 18 -28 3 0 15 -17 26 -37 11 -21 29 -47 41
-59 12 -11 25 -32 29 -45 4 -13 15 -33 24 -44 9 -11 27 -40 40 -65 13 -25 28
-50 33 -56 16 -21 88 -158 139 -264 102 -210 99 -201 75 -233 -21 -28 -69 -31
-119 -9 -37 17 -49 29 -76 83 -18 35 -36 71 -40 79 -5 8 -24 46 -43 83 -47 96
-60 121 -68 127 -4 3 -21 30 -37 60 -43 80 -80 141 -146 239 -32 47 -71 106
-87 131 -16 25 -35 52 -43 60 -7 8 -33 42 -58 75 -24 33 -57 76 -74 96 -16 20
-41 50 -55 68 -46 60 -214 245 -282 310 -21 20 -82 79 -136 131 -55 52 -119
111 -142 130 -24 19 -54 45 -67 58 -13 12 -26 22 -29 22 -3 0 -31 21 -62 48
-31 26 -61 50 -67 54 -5 4 -50 37 -98 73 -48 36 -94 65 -101 65 -7 0 -21 9
-32 21 -10 12 -37 30 -58 41 -21 11 -44 24 -50 29 -25 21 -85 57 -105 64 -12
3 -21 11 -21 16 0 5 -15 17 -34 26 -19 10 -99 51 -178 91 -79 40 -150 77 -158
82 -8 5 -35 17 -60 28 -25 10 -88 37 -140 60 -52 22 -122 50 -155 62 -33 12
-79 31 -103 41 -23 10 -55 19 -70 19 -15 0 -36 7 -46 15 -11 8 -28 15 -38 15
-10 0 -35 8 -56 19 -20 10 -63 21 -95 25 -32 3 -71 13 -85 20 -15 8 -47 17
-72 21 -25 4 -50 12 -57 17 -6 5 -55 14 -109 19 -54 6 -103 14 -110 20 -6 5
-57 14 -113 19 -56 6 -113 15 -127 20 -34 13 -389 31 -614 31 -219 0 -542 -17
-588 -30 -17 -5 -69 -13 -115 -17 -45 -3 -96 -12 -114 -20 -18 -7 -65 -16
-105 -20 -40 -4 -99 -15 -132 -25 -32 -11 -71 -19 -87 -19 -15 0 -34 -6 -41
-13 -7 -8 -40 -17 -72 -21 -32 -3 -68 -11 -79 -18 -12 -6 -42 -17 -67 -24 -25
-7 -76 -24 -115 -39 -38 -14 -88 -31 -110 -37 -22 -6 -49 -17 -60 -25 -11 -7
-27 -13 -37 -13 -9 0 -54 -18 -100 -40 -46 -22 -88 -40 -95 -40 -13 0 -405
-198 -413 -209 -3 -3 -18 -12 -34 -19 -27 -12 -105 -60 -168 -103 -15 -11 -31
-19 -35 -20 -4 0 -35 -20 -68 -45 -33 -24 -85 -61 -115 -81 -62 -43 -63 -43
-106 -78 -18 -14 -37 -25 -43 -25 -6 0 -11 -4 -11 -8 0 -5 -28 -30 -61 -58
-34 -27 -83 -68 -111 -91 -27 -24 -53 -43 -58 -43 -6 0 -10 -4 -10 -10 0 -5
-21 -29 -47 -52 -40 -34 -215 -211 -376 -378 -19 -19 -65 -75 -103 -124 -38
-49 -93 -117 -121 -152 -29 -34 -53 -67 -53 -73 0 -5 -6 -16 -13 -23 -6 -7
-35 -47 -62 -88 -28 -41 -57 -83 -65 -93 -17 -20 -48 -71 -84 -137 -13 -25
-35 -61 -49 -81 -14 -21 -28 -48 -32 -60 -4 -13 -11 -26 -15 -29 -3 -3 -28
-50 -55 -105 -26 -55 -52 -107 -57 -115 -4 -8 -15 -28 -22 -45 -8 -16 -27 -42
-43 -57 -24 -23 -35 -26 -80 -24 -82 4 -99 30 -67 97 9 19 25 54 36 79 11 25
24 52 29 60 5 8 14 26 20 40 25 59 89 178 126 237 18 29 33 56 33 61 0 5 18
37 40 71 22 34 40 64 40 67 0 3 5 10 10 17 31 37 80 107 80 115 0 5 13 22 30
38 16 16 30 34 30 41 0 6 9 22 19 35 78 92 181 228 181 237 0 6 7 11 15 11 8
0 15 7 15 15 0 8 12 28 28 44 75 80 135 146 221 246 5 6 51 49 102 97 52 48
121 113 154 144 33 32 72 65 87 74 15 9 37 28 48 43 12 15 26 27 32 27 6 0 28
18 49 40 21 22 43 40 48 40 6 0 21 11 35 25 14 14 28 25 30 25 3 0 25 15 49
33 24 17 56 41 71 52 16 11 47 34 70 50 22 17 57 40 76 50 19 11 52 32 74 48
21 15 43 27 47 27 5 0 32 18 61 40 29 22 65 42 80 45 16 4 28 10 28 15 0 4 30
22 68 39 37 18 74 36 82 41 49 30 279 137 313 145 15 4 27 11 27 16 0 5 5 9
12 9 6 0 30 9 52 19 47 23 94 40 226 82 52 17 107 37 121 44 26 14 48 21 189
55 41 10 111 28 155 40 44 12 129 31 190 41 60 11 125 24 145 29 19 5 67 12
105 16 39 3 73 8 76 10 12 7 188 25 289 30 58 3 152 9 210 14 58 4 137 6 175
4 39 -2 149 -8 245 -13z m125 -460 c39 -6 111 -13 160 -16 50 -4 155 -20 235
-37 80 -17 177 -36 215 -44 39 -7 108 -25 155 -39 47 -14 110 -32 140 -40 30
-8 80 -24 110 -35 30 -12 75 -28 100 -35 79 -23 311 -121 440 -185 19 -9 138
-73 210 -113 118 -65 437 -270 490 -315 61 -52 112 -92 118 -92 4 0 23 -15 42
-33 19 -18 42 -38 51 -43 19 -10 195 -172 273 -250 133 -133 366 -394 366
-408 0 -4 20 -32 45 -64 79 -101 115 -152 115 -162 0 -6 4 -10 9 -10 5 0 14
-13 21 -30 7 -16 17 -30 22 -30 5 0 14 -13 19 -30 6 -16 15 -30 20 -30 6 0 15
-13 20 -30 6 -16 15 -30 19 -30 5 0 12 -10 15 -22 4 -13 24 -50 44 -83 58 -94
60 -98 76 -130 9 -16 22 -41 30 -55 8 -14 15 -33 15 -42 0 -9 4 -20 10 -23 9
-6 33 -54 75 -153 15 -34 16 -47 7 -67 -10 -22 -18 -25 -66 -25 -49 0 -57 3
-81 32 -15 18 -32 44 -37 58 -15 39 -62 134 -69 140 -3 3 -19 33 -34 68 -15
34 -31 62 -35 62 -4 0 -22 30 -40 67 -18 36 -36 71 -41 77 -5 6 -33 47 -61 91
-57 87 -56 86 -93 131 -14 18 -25 37 -25 43 0 5 -8 18 -18 28 -10 10 -41 47
-68 83 -27 36 -52 67 -56 70 -3 3 -26 30 -50 60 -51 66 -156 179 -253 273
-186 182 -236 228 -312 285 -44 34 -83 65 -85 70 -1 5 -38 33 -81 63 -43 30
-115 80 -160 111 -45 32 -110 75 -145 95 -35 21 -80 48 -100 60 -20 13 -48 28
-62 35 -14 7 -27 15 -30 18 -3 3 -58 32 -123 65 -65 32 -120 62 -123 67 -3 4
-14 8 -24 8 -10 0 -31 7 -47 15 -15 7 -49 23 -75 35 -27 11 -67 29 -91 40 -24
11 -50 20 -58 20 -8 0 -31 9 -52 20 -20 11 -47 20 -58 20 -12 0 -40 9 -63 19
-57 27 -132 51 -192 62 -28 5 -67 16 -87 24 -20 8 -50 15 -67 15 -17 0 -47 7
-66 15 -19 8 -72 19 -116 25 -44 5 -86 14 -92 19 -7 6 -61 13 -121 16 -61 4
-141 12 -180 20 -144 28 -729 25 -885 -4 -30 -6 -98 -15 -150 -20 -52 -5 -115
-14 -140 -20 -25 -5 -70 -14 -100 -20 -30 -5 -95 -19 -145 -31 -49 -12 -112
-26 -140 -32 -27 -5 -63 -16 -80 -23 -16 -7 -54 -19 -82 -25 -29 -7 -53 -16
-53 -21 0 -4 -17 -11 -37 -15 -21 -4 -55 -15 -75 -25 -21 -11 -46 -19 -56 -19
-10 0 -27 -7 -38 -15 -10 -8 -26 -15 -34 -15 -8 0 -37 -11 -65 -25 -27 -13
-57 -25 -66 -25 -9 0 -22 -7 -29 -15 -7 -8 -18 -15 -24 -15 -6 0 -33 -12 -61
-25 -27 -14 -55 -25 -61 -25 -7 0 -14 -7 -18 -15 -3 -8 -13 -15 -22 -15 -9 0
-27 -9 -41 -20 -14 -11 -32 -20 -40 -20 -7 0 -25 -7 -39 -17 -14 -9 -39 -23
-55 -32 -60 -33 -144 -84 -149 -90 -3 -4 -25 -17 -50 -30 -25 -13 -54 -31 -65
-40 -11 -9 -49 -37 -85 -61 -53 -36 -219 -164 -329 -255 -153 -126 -410 -390
-529 -544 -24 -31 -48 -57 -53 -59 -5 -2 -9 -8 -9 -12 0 -5 -10 -20 -22 -32
-11 -13 -58 -77 -104 -143 -46 -66 -90 -128 -99 -137 -8 -10 -15 -21 -15 -25
0 -3 -20 -38 -44 -77 -24 -39 -53 -89 -65 -111 -12 -22 -33 -58 -46 -80 -13
-22 -27 -47 -30 -55 -36 -84 -101 -202 -121 -219 -35 -31 -108 -29 -129 2 -17
27 -10 86 11 94 8 3 14 13 14 22 0 16 126 270 139 281 3 3 21 34 40 70 44 84
152 250 163 250 4 0 8 6 8 13 0 14 48 90 84 132 55 65 76 93 76 102 0 5 8 16
18 24 9 9 24 25 32 35 9 10 40 49 70 87 29 37 57 67 62 67 5 0 12 8 15 18 14
38 337 357 444 439 20 16 69 55 109 88 40 33 92 74 115 90 23 17 75 54 116 83
111 78 170 117 217 141 23 12 42 25 42 29 0 4 9 12 20 17 103 51 240 123 259
137 13 10 32 18 42 18 11 0 19 4 19 9 0 5 10 13 23 17 12 3 69 29 127 56 57
28 127 57 155 65 27 8 55 19 60 23 6 4 33 15 60 23 28 8 70 24 95 35 25 11 77
27 116 35 38 9 86 23 107 32 20 8 51 15 70 15 18 0 37 4 42 9 6 5 44 16 85 24
41 8 107 22 145 31 39 9 90 21 115 27 25 6 117 17 205 26 88 8 196 19 240 23
100 10 596 3 690 -9z m-467 -493 c6 -6 12 -24 12 -40 0 -41 -37 -71 -90 -74
-23 -1 -47 -7 -52 -12 -18 -18 2 -33 40 -31 47 3 80 -15 88 -47 14 -55 -23
-84 -108 -84 -25 0 -29 -4 -26 -22 3 -21 9 -23 66 -24 35 -1 65 -4 68 -6 17
-18 21 -68 7 -97 -14 -28 -20 -31 -67 -33 -167 -6 -201 0 -209 35 -5 19 -11
346 -8 400 1 9 9 25 19 35 17 17 32 18 133 14 63 -2 120 -9 127 -14z m315 -5
c5 -3 8 -75 7 -161 -1 -87 -1 -163 -1 -169 1 -7 21 -18 46 -24 51 -13 75 -39
68 -72 -10 -39 -31 -47 -127 -46 -50 1 -102 4 -116 8 -40 11 -47 62 -27 184
10 56 18 129 18 162 2 91 10 118 39 126 24 7 76 2 93 -8z m-781 -20 c21 -19
25 -82 6 -101 -7 -7 -22 -12 -35 -12 -16 0 -25 -7 -29 -26 -9 -36 0 -180 13
-196 17 -21 24 -67 17 -104 -5 -29 -12 -35 -46 -44 -22 -6 -47 -10 -56 -8 -24
5 -51 86 -64 196 -15 122 -27 142 -82 142 -22 0 -46 4 -53 8 -16 10 -20 81 -6
90 17 10 227 59 307 71 5 0 18 -6 28 -16z m1263 -43 c75 -11 105 -33 105 -74
0 -47 -23 -61 -93 -58 -78 4 -95 -11 -40 -34 55 -23 73 -43 73 -80 0 -42 -27
-58 -84 -50 -54 8 -71 -3 -50 -32 9 -14 26 -22 43 -22 41 0 72 -29 73 -67 2
-49 -18 -65 -71 -60 -83 8 -196 37 -209 55 -16 20 -9 105 13 167 8 22 14 63
15 90 0 28 9 70 20 94 11 24 20 47 20 51 0 5 4 20 10 34 9 25 10 25 57 11 26
-8 80 -19 118 -25z m-1818 -101 c59 -25 93 -56 93 -84 0 -16 -13 -27 -48 -44
-41 -19 -58 -22 -105 -16 -79 10 -107 -8 -107 -69 0 -58 7 -74 41 -91 48 -26
86 -19 128 22 43 41 114 68 130 49 25 -30 16 -97 -20 -142 -42 -54 -95 -83
-165 -90 -110 -12 -190 30 -234 122 -19 39 -22 58 -18 137 4 88 6 94 39 131
38 44 138 95 186 96 17 0 53 -9 80 -21z m2222 -4 c110 -37 170 -78 171 -116 0
-9 7 -22 15 -29 17 -14 14 -50 -8 -101 -18 -42 -33 -55 -68 -64 -34 -8 -53
-39 -39 -65 16 -30 13 -140 -5 -146 -20 -8 -106 26 -112 45 -3 9 -14 34 -23
56 -10 22 -20 47 -22 55 -3 8 -8 -2 -12 -22 -7 -38 -37 -68 -67 -68 -9 0 -31
13 -48 29 -29 27 -30 32 -25 77 4 27 12 56 19 64 7 8 16 36 20 62 4 26 13 52
21 59 7 6 16 27 20 48 4 20 13 47 20 61 8 14 18 37 24 53 12 34 26 34 119 2z
m464 -195 c26 -16 47 -34 47 -39 0 -15 -53 -126 -62 -129 -4 -2 -8 -11 -8 -20
0 -10 -9 -34 -20 -55 -11 -20 -20 -46 -20 -57 0 -10 -9 -24 -20 -30 -11 -6
-22 -26 -26 -46 -8 -45 -59 -81 -84 -60 -8 7 -23 16 -33 19 -9 4 -20 14 -24
23 -8 21 13 101 31 120 8 8 17 28 21 45 4 17 22 57 40 88 18 31 36 67 40 81 8
25 55 90 66 90 3 0 26 -13 52 -30z m-3238 -21 c54 -15 99 -52 131 -107 24 -40
28 -58 28 -128 1 -72 -2 -85 -26 -122 -16 -23 -28 -46 -28 -51 0 -5 -17 -17
-37 -26 -21 -10 -41 -23 -45 -29 -11 -17 -178 -12 -192 5 -6 8 -22 20 -36 27
-55 28 -105 123 -102 192 8 174 148 283 307 239z m3613 -176 c66 -41 77 -90
43 -204 -10 -35 -23 -86 -29 -114 -47 -220 -57 -233 -128 -179 -28 22 -34 33
-34 64 0 32 -6 42 -37 66 -39 30 -113 40 -120 18 -3 -8 -13 -8 -37 0 -44 15
-66 34 -66 58 0 23 27 78 39 78 4 0 20 11 35 25 15 14 32 25 37 25 6 0 21 13
35 29 13 16 48 46 77 66 28 20 67 47 86 60 40 29 62 31 99 8z m-4075 -153 c15
-17 27 -34 27 -38 -1 -19 -89 -72 -120 -72 -18 0 -48 -9 -66 -21 -30 -18 -34
-26 -34 -62 1 -29 8 -50 23 -67 39 -42 59 -49 104 -37 33 8 44 18 57 48 34 77
121 125 146 80 15 -28 12 -84 -5 -107 -8 -10 -15 -27 -15 -36 0 -26 -55 -84
-107 -112 -150 -84 -343 37 -343 216 0 76 28 136 88 188 50 45 98 61 167 55
40 -4 55 -10 78 -35z m1898 -546 c28 -21 129 -36 200 -29 39 4 69 3 69 -2 0
-5 10 -9 22 -10 11 -1 25 -8 29 -15 4 -7 10 -10 13 -7 9 9 117 -16 116 -26 0
-12 12 -12 -137 4 -90 10 -123 18 -123 27 0 10 -17 14 -62 16 -122 3 -154 5
-221 17 -97 16 -496 18 -524 3 -12 -7 -29 -9 -39 -5 -12 4 -15 3 -10 -5 4 -7
1 -12 -8 -12 -23 0 -20 21 4 27 11 3 20 9 20 14 0 17 629 20 651 3z m-742 -43
c11 -7 9 -12 -11 -25 -13 -8 -39 -21 -58 -27 -63 -20 -79 -32 -91 -68 -7 -20
-18 -40 -25 -46 -24 -20 -51 -99 -42 -124 5 -13 6 -32 3 -42 -4 -11 2 -26 14
-38 17 -17 18 -22 6 -38 -13 -17 -14 -17 -20 2 -16 50 -39 85 -47 73 -5 -10
-8 -8 -8 5 0 11 -10 20 -30 23 l-29 6 25 22 c64 53 70 62 73 101 1 24 9 44 19
50 9 6 32 26 52 46 19 20 50 42 68 50 17 8 32 17 32 21 0 4 10 9 23 11 12 2
24 5 27 5 3 1 11 -2 19 -7z m-580 -284 c12 -16 5 -28 -13 -21 -12 4 -69 -19
-66 -27 4 -11 -14 -39 -24 -39 -6 0 -33 -22 -61 -49 -27 -27 -59 -50 -70 -53
-15 -3 -19 -10 -17 -30 2 -20 -5 -33 -29 -50 -17 -13 -48 -47 -69 -76 -36 -50
-90 -102 -90 -87 0 4 -7 2 -15 -5 -8 -7 -13 -16 -10 -20 8 -13 -51 -94 -79
-110 -14 -7 -26 -17 -26 -22 0 -4 -11 -8 -25 -8 -14 0 -25 5 -25 10 0 6 8 10
18 10 17 0 41 35 48 67 3 18 46 76 66 91 10 7 31 32 47 55 38 55 92 113 103
110 4 -2 8 3 8 11 0 8 9 18 20 21 11 3 20 13 20 21 0 13 70 87 133 139 29 24
118 74 133 74 6 1 17 -5 23 -12z m436 -181 c0 -6 9 -13 20 -16 23 -6 75 -49
75 -62 0 -4 18 -24 40 -44 22 -20 37 -40 34 -45 -3 -5 3 -9 13 -10 23 0 67
-56 66 -81 -1 -13 3 -18 13 -14 10 4 14 -2 14 -18 0 -15 9 -27 25 -34 14 -7
25 -20 25 -31 0 -11 6 -24 14 -28 18 -10 76 -89 76 -103 0 -5 5 -10 10 -10 6
0 10 -9 10 -20 0 -11 6 -23 14 -26 8 -3 33 -33 55 -67 81 -124 102 -138 197
-136 38 1 361 1 717 0 563 -2 652 0 672 13 31 20 38 73 36 274 -1 89 1 162 4
162 3 0 14 -9 26 -21 19 -19 20 -29 17 -219 -3 -194 -3 -199 18 -204 11 -3
133 -5 270 -5 504 2 530 3 548 18 15 13 15 15 -4 33 -25 23 -36 66 -21 81 8 8
11 7 11 -6 0 -9 6 -17 14 -17 7 0 19 -14 27 -31 9 -23 27 -38 65 -56 l52 -24
1463 0 1464 0 28 -23 c25 -20 28 -29 25 -67 -3 -39 -7 -46 -38 -62 -33 -16
-115 -17 -1425 -16 -764 1 -1404 1 -1422 0 -17 -1 -38 -8 -47 -16 -18 -19 -25
-19 -46 0 -19 17 -39 18 -220 17 -63 0 -268 -1 -455 -1 l-340 0 -19 -24 c-15
-20 -19 -49 -23 -163 -3 -85 -11 -152 -19 -173 -8 -18 -14 -35 -14 -36 0 -2
14 -11 32 -19 23 -12 62 -16 153 -16 184 0 166 47 170 -445 1 -226 3 -413 4
-417 0 -4 9 -14 18 -24 13 -13 14 -19 5 -22 -7 -2 -12 -21 -12 -43 l0 -39 50
1 c28 1 53 -1 57 -4 9 -10 -57 -35 -83 -32 -20 2 -23 -4 -29 -46 -4 -26 -2
-56 3 -65 6 -11 6 -28 0 -48 -6 -17 -12 -141 -14 -275 l-3 -244 -32 -33 c-31
-32 -58 -46 -44 -24 3 6 -3 10 -15 10 -12 0 -19 -4 -16 -9 3 -5 -3 -11 -14
-14 -14 -3 -20 0 -20 10 0 11 -6 14 -21 10 -12 -3 -33 -1 -48 4 -14 6 -43 12
-63 13 -21 2 -44 9 -53 16 -15 12 -17 40 -3 50 7 6 13 331 8 450 l-3 75 -8
-62 c-4 -34 -14 -72 -22 -85 -9 -14 -17 -61 -20 -125 -4 -76 -9 -107 -21 -119
-12 -12 -15 -25 -10 -52 4 -21 10 -39 13 -42 10 -8 12 -32 2 -26 -5 3 -11 -1
-15 -9 -3 -8 -12 -15 -20 -15 -19 0 -38 -34 -36 -63 5 -57 5 -57 -52 -40 -29
8 -55 19 -58 23 -3 5 -31 18 -62 30 -31 11 -62 27 -69 36 -15 18 -89 16 -89
-3 0 -7 -6 -13 -14 -13 -7 0 -16 -9 -19 -20 -3 -11 -12 -20 -21 -20 -9 0 -16
-8 -16 -20 0 -13 -7 -20 -19 -20 -14 0 -29 -21 -55 -75 -20 -41 -36 -82 -36
-92 0 -9 -8 -25 -17 -36 -24 -26 -22 -116 3 -134 14 -10 205 -12 983 -10 881
3 1013 6 1027 20 6 6 -55 14 -164 23 -45 4 -85 11 -88 15 -3 5 -45 9 -94 9
-83 0 -88 1 -83 20 5 18 12 20 87 15 98 -6 275 -17 334 -21 34 -2 42 0 42 14
1 16 1 16 11 0 14 -25 41 -22 75 7 16 14 35 25 42 25 17 0 15 -45 -3 -60 -21
-17 -19 -47 4 -60 13 -7 420 -10 1247 -10 l1228 0 28 -27 c21 -20 28 -36 28
-65 0 -32 -5 -41 -32 -58 -32 -20 -55 -20 -1283 -20 -687 0 -1259 -3 -1270 -6
-17 -4 -20 -14 -22 -72 -3 -84 -10 -115 -25 -106 -6 4 -9 3 -6 -2 3 -5 -1 -22
-8 -39 -12 -28 -13 -24 -14 56 0 47 5 90 10 95 20 20 20 53 0 64 -22 12 -2003
13 -2034 1 -14 -5 -16 -10 -8 -15 7 -4 12 -17 12 -30 0 -12 5 -27 10 -32 12
-12 22 -48 24 -86 0 -14 3 -26 6 -26 21 1 29 -6 34 -29 9 -37 58 -133 68 -133
4 0 8 -4 8 -10 0 -9 9 -21 46 -61 48 -51 89 -79 117 -79 24 0 28 -3 17 -10
-16 -10 -61 -2 -71 12 -5 8 -22 14 -50 17 -12 2 -56 47 -81 84 -13 20 -28 34
-31 31 -4 -4 -10 2 -13 12 -4 10 -16 30 -26 43 -10 13 -18 36 -18 50 0 15 -4
31 -9 36 -5 6 -14 27 -20 47 -7 20 -18 42 -26 48 -8 7 -12 17 -9 22 3 5 -6 22
-21 38 -15 16 -24 33 -21 38 3 6 -1 18 -10 27 -15 15 -81 16 -743 12 -463 -2
-737 -7 -756 -13 -18 -7 -42 -7 -60 -2 -51 14 -314 22 -338 10 -12 -6 -41 -16
-64 -22 -24 -6 -43 -15 -43 -19 0 -14 -34 -19 -60 -9 -24 9 -24 10 -6 23 18
14 18 15 -8 25 -31 11 -211 13 -271 1 l-40 -7 29 -14 c16 -8 31 -21 34 -28 5
-15 -43 -10 -108 11 l-35 11 30 7 30 7 -32 1 c-17 0 -35 6 -38 11 -4 7 -504
10 -1466 10 l-1461 0 -29 29 c-17 18 -29 40 -29 56 0 16 12 38 29 56 l29 29
1414 0 c777 0 1418 4 1425 8 20 12 -6 138 -35 169 -15 17 -24 39 -26 68 -1 24
-7 49 -13 57 -5 7 -15 28 -21 46 -6 18 -18 40 -27 48 -8 8 -15 24 -15 33 0 10
-6 34 -14 52 -7 19 -17 65 -21 102 -9 87 4 327 18 327 6 0 8 -23 4 -63 -3 -34
-2 -68 2 -75 4 -7 3 -30 -2 -51 -9 -32 -7 -45 10 -78 11 -21 24 -68 28 -103 4
-35 14 -70 21 -78 8 -7 14 -28 14 -46 0 -17 6 -38 12 -44 7 -7 13 -18 14 -25
1 -22 26 -77 34 -77 8 0 25 -68 21 -84 -4 -18 11 -45 23 -40 7 3 21 -4 31 -16
10 -11 13 -20 8 -20 -12 0 -23 -47 -16 -66 10 -27 62 -35 268 -41 116 -3 224
-3 238 1 26 6 27 8 21 61 -6 52 -5 55 15 55 13 0 25 -8 29 -20 4 -11 29 -38
56 -60 47 -39 50 -40 126 -40 43 0 90 4 104 10 23 8 61 62 51 72 -5 5 -14 118
-15 179 0 21 -8 44 -21 57 -11 12 -17 27 -14 33 4 5 4 21 1 34 l-6 25 -138 -7
c-117 -5 -140 -4 -153 10 -9 8 -26 17 -39 19 -15 2 -32 18 -47 46 -14 24 -33
52 -44 63 -10 10 -19 24 -19 30 0 6 -10 23 -23 38 -21 26 -31 50 -57 150 -11
43 -71 111 -97 111 -19 0 -53 32 -46 43 3 6 1 7 -5 3 -7 -4 -12 -3 -12 2 0 6
-15 13 -33 16 -42 8 -86 50 -63 59 9 4 37 -5 63 -18 25 -14 51 -25 58 -25 6 0
21 -9 33 -20 27 -25 77 -26 88 -2 4 9 11 220 14 467 5 408 7 453 23 487 10 20
19 50 21 67 2 32 18 57 52 82 17 12 64 82 64 95 0 2 -8 4 -17 4 -25 0 -83 37
-83 52 0 7 -18 22 -40 32 -22 11 -40 24 -41 30 0 6 -2 21 -3 34 -4 33 10 27
56 -23 23 -25 47 -45 55 -45 7 0 13 -7 13 -14 0 -8 15 -26 33 -40 28 -22 39
-24 92 -20 33 3 82 12 108 21 27 8 64 15 83 15 38 0 184 -50 184 -63 0 -5 15
-15 34 -23 35 -15 105 -98 106 -126 0 -8 7 -24 15 -34 8 -11 15 -32 15 -46 0
-14 5 -31 11 -37 10 -10 59 -6 59 6 0 4 9 7 20 8 11 1 35 9 52 18 25 12 33 13
40 3 8 -13 11 -5 9 22 -1 12 10 16 49 18 52 2 57 -3 41 -43 -6 -15 -18 -19
-59 -21 -29 -1 -58 -6 -64 -12 -7 -5 -29 -13 -48 -17 -19 -4 -48 -20 -64 -36
l-29 -28 2 -160 c2 -157 2 -159 -22 -178 -13 -10 -27 -28 -31 -39 -5 -16 -13
-20 -31 -16 -14 2 -25 10 -25 18 0 21 -44 27 -129 20 -67 -5 -80 -4 -93 11
-17 20 -31 66 -18 58 5 -3 11 23 15 57 9 86 3 224 -10 220 -5 -1 -12 19 -15
44 -6 52 -16 61 -45 40 -15 -11 -17 -17 -8 -28 14 -16 6 -32 -19 -41 -15 -5
-18 -19 -18 -81 0 -41 5 -87 11 -103 19 -46 21 -90 4 -106 -17 -17 -20 -63 -6
-99 5 -14 5 -43 1 -69 -9 -45 -3 -122 9 -115 4 3 5 -30 3 -72 -1 -42 -6 -79
-11 -82 -10 -6 -14 -35 -12 -102 l1 -47 36 15 c67 28 84 58 84 153 0 38 4 81
10 95 8 23 15 26 54 26 24 0 56 6 70 14 33 17 86 93 86 125 0 20 2 22 16 11
15 -13 14 -55 -2 -112 -4 -13 0 -18 15 -18 11 0 23 -5 26 -11 4 -5 18 -14 31
-19 l24 -10 0 -182 c0 -143 -3 -189 -15 -212 -8 -16 -15 -54 -15 -87 0 -35 -4
-59 -11 -59 -5 0 -17 -16 -24 -34 -8 -19 -44 -64 -80 -99 -36 -35 -65 -69 -65
-76 0 -6 8 -24 18 -38 14 -22 17 -53 19 -174 0 -81 4 -156 8 -168 4 -13 18
-22 38 -26 18 -3 358 -4 757 -3 l724 3 8 35 c23 101 40 150 51 150 5 0 7 9 4
21 -4 13 5 39 24 69 16 26 29 54 29 62 0 9 14 21 30 28 63 26 31 40 -91 40
-82 0 -92 2 -114 25 l-25 24 -1 543 c0 299 -4 566 -9 593 -5 31 -5 63 2 86 7
26 7 61 -2 122 -11 78 -14 86 -36 91 -14 4 -22 11 -19 16 3 6 0 10 -7 10 -8 0
-6 5 5 11 10 6 24 8 32 6 14 -6 19 15 31 121 6 46 11 57 38 73 22 13 41 17 69
12 29 -4 42 -1 58 13 20 18 21 18 34 1 11 -15 17 -17 35 -7 11 6 29 8 40 5 11
-3 29 -1 40 5 17 9 25 8 40 -5 11 -10 26 -15 33 -12 11 4 16 -8 20 -50 3 -30
13 -63 21 -72 9 -10 16 -25 16 -34 0 -9 4 -18 9 -21 5 -3 7 -15 4 -26 -3 -11
-2 -31 1 -45 6 -24 7 -24 24 -7 10 10 28 25 39 33 11 8 28 32 37 53 11 27 20
36 31 32 11 -4 15 1 15 19 0 29 15 59 48 96 13 15 24 40 24 59 1 18 7 34 16
37 8 4 28 35 43 70 16 34 34 63 39 63 6 0 10 11 10 24 0 13 5 26 10 28 16 5
25 154 10 163 -7 5 -232 8 -499 7 -267 -1 -568 -1 -668 -2 -174 0 -183 -1
-183 -19 0 -11 4 -22 9 -25 4 -3 11 -28 15 -55 5 -40 10 -48 24 -45 12 3 25
-10 45 -42 15 -25 27 -49 27 -53 0 -4 9 -16 20 -26 11 -10 20 -24 20 -32 0 -7
9 -21 20 -30 11 -10 20 -24 20 -33 0 -8 9 -28 20 -45 11 -16 20 -40 20 -52 0
-12 10 -30 23 -40 12 -10 22 -22 22 -28 0 -20 39 -95 49 -95 6 0 11 -16 12
-35 0 -19 7 -41 16 -48 8 -6 29 -33 46 -58 17 -25 37 -51 46 -58 17 -14 22
-56 7 -65 -21 -13 -75 61 -65 88 4 11 1 16 -10 16 -9 0 -16 8 -16 20 0 11 -4
20 -9 20 -5 0 -12 11 -15 25 -4 14 -10 24 -14 24 -27 -4 -40 7 -60 50 -12 28
-31 53 -42 56 -19 6 -25 22 -21 53 1 7 -5 22 -13 33 -9 14 -12 33 -9 56 5 28
3 35 -8 31 -19 -7 -49 20 -42 38 3 8 -1 14 -10 14 -11 0 -18 14 -22 44 -5 31
-16 52 -36 70 -16 15 -29 32 -29 39 0 7 -15 30 -32 52 -18 21 -33 44 -33 49
-1 12 -12 40 -28 73 -14 31 -36 36 -145 35 -102 -1 -119 -6 -101 -28 9 -11 8
-14 -4 -14 -8 0 -17 9 -20 19 -6 23 -47 30 -119 19 -25 -3 -70 -3 -100 1 -79
10 -1214 4 -1234 -7 -15 -8 -13 -11 12 -23 16 -8 30 -20 30 -27 1 -6 2 -16 3
-22 0 -5 7 -10 14 -10 6 -1 21 -13 32 -27 11 -14 35 -41 54 -60 27 -26 32 -37
25 -53 -8 -18 -13 -15 -54 35 -25 30 -49 55 -54 55 -17 0 -51 55 -48 77 2 14
-2 23 -10 23 -7 0 -26 7 -42 15 -16 8 -40 15 -55 14 -14 0 -37 2 -51 6 -14 4
-648 7 -1409 7 -857 0 -1394 3 -1409 9 -60 23 -71 91 -21 133 l30 26 1385 0
c910 0 1392 4 1404 10 11 6 22 27 26 48 4 20 14 53 22 72 8 19 14 36 13 38 -7
15 4 31 24 36 14 4 25 14 25 23 0 20 73 93 94 93 11 0 6 -9 -14 -30 -17 -17
-30 -37 -30 -45 0 -9 -6 -12 -17 -8 -10 4 -14 2 -9 -5 3 -6 3 -13 -2 -16 -4
-2 -9 -21 -10 -41 -2 -20 -12 -49 -23 -64 -16 -22 -19 -36 -14 -65 4 -20 11
-39 16 -42 10 -6 1187 -7 1197 0 4 2 36 1 72 -3 77 -9 134 4 127 30 -3 9 -1
23 4 30 6 10 9 8 9 -8 0 -51 225 -76 244 -26 3 7 2 12 -2 9 -5 -3 -16 11 -26
31 -9 20 -28 44 -41 55 -14 11 -22 25 -18 33 3 8 0 15 -6 15 -6 0 -11 7 -11
15 0 8 -9 19 -20 25 -11 6 -20 17 -20 25 0 9 -9 23 -20 32 -11 10 -20 25 -20
35 0 9 -4 20 -10 23 -5 3 -10 13 -10 21 0 18 -18 37 -42 47 -10 3 -18 15 -18
26 0 10 -9 21 -20 24 -12 3 -20 14 -20 25 0 11 -7 23 -15 26 -20 7 -48 73 -39
88 5 7 -1 9 -17 6 -31 -7 -102 30 -107 56 -2 10 -12 28 -22 39 -10 10 -24 32
-30 48 -7 16 -16 29 -20 29 -10 0 -20 37 -12 45 7 7 47 -44 47 -59z m2165 -81
c17 -9 32 -15 35 -15 27 4 109 -20 145 -41 33 -20 64 -30 77 -25 7 3 13 1 13
-4 0 -6 5 -10 11 -10 6 0 22 -9 36 -20 14 -11 33 -20 43 -20 17 0 60 -43 60
-60 0 -6 7 -11 15 -11 8 -1 20 -2 26 -3 6 0 16 -9 23 -18 7 -10 16 -15 19 -11
4 3 7 1 7 -5 0 -7 7 -12 15 -12 8 0 15 -4 15 -10 0 -5 12 -13 26 -16 14 -4 29
-16 33 -27 4 -12 23 -26 42 -32 19 -6 38 -21 44 -33 5 -12 13 -22 17 -22 5 0
8 -8 8 -17 0 -10 14 -26 30 -35 18 -10 30 -25 30 -38 0 -30 -20 -24 -33 10 -7
17 -19 30 -28 30 -10 0 -24 7 -33 15 -8 8 -18 15 -23 15 -4 0 -16 12 -25 28
-15 23 -35 55 -46 72 -2 2 -7 -1 -11 -8 -5 -9 -24 3 -62 38 -31 29 -63 50 -76
50 -13 0 -23 4 -23 9 0 5 -15 18 -32 30 -18 11 -28 21 -23 21 6 0 -15 9 -45
20 -59 21 -107 46 -128 67 -7 7 -22 13 -33 13 -11 0 -30 7 -43 15 -22 15 -81
20 -137 12 -22 -3 -26 0 -24 17 1 12 3 27 4 34 1 16 16 15 51 -3z m-1532
-1247 l102 5 35 -37 c30 -33 35 -44 35 -87 0 -28 5 -59 11 -70 6 -11 12 -46
14 -77 11 -162 24 -274 33 -285 5 -6 12 -56 16 -111 4 -54 10 -106 15 -115 5
-9 14 -61 21 -116 6 -55 17 -127 25 -160 8 -33 17 -97 20 -143 3 -46 12 -102
19 -125 8 -23 16 -79 20 -124 3 -45 13 -105 22 -133 20 -60 14 -138 -11 -156
-11 -8 -57 -13 -133 -13 -159 0 -161 1 -172 150 -6 88 -12 115 -26 129 -24 22
-144 35 -166 17 -10 -8 -19 -47 -26 -110 -7 -60 -19 -115 -32 -142 l-22 -45
-111 0 c-62 0 -122 3 -134 6 -30 8 -42 50 -33 115 5 29 11 94 15 144 3 49 10
94 15 100 5 6 12 49 15 96 4 46 13 107 20 134 8 28 18 106 24 174 6 69 14 127
20 130 5 3 12 51 16 106 9 129 10 135 23 166 6 15 14 81 18 148 l7 122 -28 29
-27 29 41 11 c40 11 41 12 41 56 0 42 -1 44 -24 38 -13 -3 -27 -1 -30 5 -5 7
4 11 23 11 31 0 31 0 31 55 l0 55 40 0 c22 0 40 4 40 9 0 12 49 19 75 10 11
-3 66 -4 123 -1z m2610 -32 c27 -31 30 -42 37 -134 6 -86 9 -99 24 -95 22 6
78 -16 65 -25 -40 -27 -58 -195 -29 -265 8 -20 15 -62 15 -94 0 -32 9 -95 20
-141 11 -46 20 -102 20 -125 1 -23 8 -71 16 -107 9 -36 19 -111 24 -167 5 -66
13 -109 24 -124 11 -17 16 -46 16 -102 0 -49 5 -89 15 -106 8 -16 17 -65 21
-109 6 -72 5 -81 -14 -100 -20 -20 -32 -21 -139 -20 -115 1 -119 2 -145 30
-25 25 -28 35 -28 95 -1 79 -13 141 -32 158 -16 15 -149 27 -167 15 -9 -5 -15
-36 -18 -81 -2 -41 -8 -83 -13 -94 -5 -11 -14 -39 -20 -63 -8 -32 -18 -45 -37
-53 -35 -13 -240 -6 -256 10 -18 18 2 329 23 356 5 6 11 66 15 135 5 81 12
133 21 148 10 16 14 45 12 95 l-3 72 -32 3 c-39 4 -42 15 -8 30 14 6 25 18 25
27 0 8 5 15 10 15 6 0 10 11 10 25 0 27 -15 34 -24 10 -3 -8 -16 -15 -30 -15
-18 0 -25 -6 -28 -22 -3 -20 -11 -24 -58 -30 -52 -6 -69 -4 -59 7 3 2 16 6 29
8 13 2 26 12 30 21 3 10 9 17 13 17 27 -3 39 1 54 19 10 11 28 20 41 20 24 0
52 21 52 39 0 6 4 19 9 29 18 35 51 209 51 267 0 34 7 86 15 117 8 32 19 105
25 164 14 151 17 154 169 155 64 0 125 4 136 9 42 18 72 11 103 -24z m1998 15
c99 -14 182 -81 229 -186 58 -129 55 -90 52 -678 -3 -536 -3 -543 -26 -604
-12 -34 -29 -67 -37 -74 -8 -6 -14 -20 -14 -30 0 -29 -70 -98 -133 -130 -55
-28 -64 -29 -187 -29 -73 0 -131 4 -135 10 -3 5 -23 14 -43 20 -34 9 -132 88
-132 107 0 4 -9 25 -19 47 -71 150 -65 90 -66 696 0 483 2 549 16 570 9 14 19
37 22 51 9 35 69 139 80 139 5 0 29 17 54 37 34 28 64 41 121 55 76 17 94 17
218 -1z m-7616 -18 c13 -12 15 -104 17 -694 1 -646 2 -681 20 -695 13 -9 51
-13 134 -14 109 0 118 -1 143 -25 25 -23 26 -29 26 -127 0 -98 -1 -105 -26
-132 l-27 -28 -276 5 c-176 3 -285 8 -298 15 -11 6 -23 22 -26 34 -8 31 -8
1405 0 1545 7 131 -1 124 148 133 114 6 144 3 165 -17z m845 -16 c8 -12 15
-33 15 -47 0 -14 5 -32 10 -40 7 -11 10 -6 10 20 0 46 15 69 32 52 9 -9 11
-48 10 -140 -2 -70 2 -161 9 -202 6 -41 13 -93 15 -115 4 -48 8 -67 15 -80 4
-5 12 -35 18 -65 7 -30 21 -74 32 -98 13 -26 19 -55 16 -75 -2 -18 0 -44 5
-57 10 -24 10 -24 18 -5 8 18 9 18 11 -5 1 -14 2 -38 3 -55 1 -20 8 -33 24
-41 35 -18 72 -56 72 -75 0 -13 -9 -17 -36 -17 -33 0 -38 4 -52 39 -8 21 -18
36 -23 34 -4 -3 -11 9 -14 27 -12 56 -37 108 -51 108 -9 0 -13 16 -13 59 1 45
-4 67 -21 88 -11 16 -22 40 -24 54 -5 36 -16 80 -32 122 -8 20 -14 52 -15 70
l-1 32 -13 -35 c-10 -28 -13 -158 -14 -613 -1 -605 -1 -605 -45 -625 -33 -14
-253 -9 -268 6 -10 10 -14 110 -18 450 -6 521 2 1237 13 1249 12 12 237 20
270 9 15 -4 34 -18 42 -29z m8127 15 c17 -20 25 -1610 8 -1671 l-10 -39 -90
-1 c-110 -1 -137 10 -146 58 -4 20 -12 43 -19 51 -8 8 -16 32 -20 52 -4 21
-13 42 -21 48 -7 7 -16 33 -20 58 -3 26 -10 52 -15 58 -9 11 -42 102 -60 164
-5 19 -14 44 -19 55 -5 11 -21 52 -35 90 -15 39 -30 79 -35 90 -5 12 -9 -118
-10 -320 -1 -252 -4 -348 -14 -370 l-12 -30 -127 -1 c-120 -1 -127 0 -148 22
l-21 23 1 810 c0 469 5 820 10 834 13 33 28 37 137 37 97 0 134 -10 134 -35 0
-7 11 -36 25 -63 14 -28 25 -61 25 -73 0 -13 7 -33 15 -43 8 -11 15 -29 15
-41 0 -11 6 -29 14 -40 7 -11 17 -36 21 -55 4 -19 13 -44 20 -55 7 -11 16 -39
20 -62 3 -22 13 -49 20 -60 8 -10 15 -25 15 -33 0 -8 9 -32 20 -53 11 -20 20
-48 20 -61 0 -14 5 -28 10 -31 7 -4 10 109 10 332 0 256 3 343 13 356 9 13 32
17 102 19 115 4 151 0 167 -20z m-10660 -11 c83 -32 168 -118 199 -202 l24
-64 0 -565 c0 -620 4 -570 -61 -693 -43 -80 -88 -116 -187 -149 -53 -17 -94
-21 -266 -23 -213 -4 -250 2 -265 40 -3 9 -6 384 -6 832 l0 816 23 19 c21 19
34 20 252 16 208 -4 236 -7 287 -27z m1107 -2 c14 -40 14 -224 1 -250 -10 -17
-22 -19 -140 -19 -92 0 -131 -4 -137 -12 -4 -7 -8 -89 -8 -183 -1 -140 2 -172
14 -181 9 -7 55 -13 108 -13 157 -2 163 -8 163 -155 0 -146 0 -146 -149 -147
-59 -1 -114 -5 -122 -10 -18 -11 -21 -381 -3 -399 7 -7 58 -12 134 -13 119 -2
123 -3 141 -27 19 -25 21 -54 15 -175 -4 -83 -4 -82 -22 -99 -13 -14 -54 -16
-289 -16 -279 0 -313 4 -325 40 -10 30 -9 1613 1 1639 19 50 23 51 325 51
l282 0 11 -31z m7266 -3 c74 -36 119 -82 131 -132 3 -16 14 -40 22 -54 14 -21
16 -60 17 -235 0 -200 -1 -212 -22 -250 -13 -22 -23 -43 -23 -47 0 -5 -9 -17
-20 -28 l-21 -21 33 -62 c17 -34 36 -71 42 -82 7 -13 12 -138 14 -342 2 -178
7 -323 11 -323 14 0 4 -69 -13 -95 l-17 -26 -127 4 c-70 1 -133 6 -140 11 -36
22 -40 55 -41 379 -1 176 -6 329 -11 342 -16 42 -95 51 -109 13 -4 -13 -7
-165 -5 -338 2 -320 -3 -383 -34 -398 -9 -5 -75 -10 -146 -11 -97 -1 -132 -6
-143 -16 -8 -8 -21 -15 -29 -15 -12 0 -13 23 -9 143 18 517 7 817 -31 871 -16
23 -19 112 -5 121 5 3 15 -11 22 -30 7 -19 16 -35 20 -35 14 0 19 103 19 374
l0 281 28 17 c23 15 59 18 272 18 l246 0 69 -34z m-2283 -1749 c20 -20 72 -35
101 -30 19 4 29 0 33 -11 3 -9 10 -13 15 -10 5 3 9 0 9 -5 0 -6 15 -11 34 -11
18 0 39 -7 46 -15 7 -8 25 -15 41 -15 43 0 129 -21 129 -31 0 -5 -5 -9 -11 -9
-7 0 -17 -8 -24 -17 -11 -15 -17 -15 -59 -3 -25 7 -46 17 -46 22 0 5 -6 8 -12
6 -24 -4 -118 13 -118 21 0 5 -11 8 -25 6 -14 -1 -25 2 -25 6 0 5 -6 9 -14 9
-8 0 -16 7 -20 15 -3 8 -23 18 -45 21 -35 6 -71 35 -71 59 0 11 49 4 62 -8z
m583 -158 c11 -4 47 -13 80 -20 33 -7 66 -19 74 -26 7 -8 30 -13 50 -13 115 3
198 -21 185 -54 -4 -10 -19 -13 -57 -10 -83 7 -101 12 -87 29 17 20 -1 25 -51
14 -24 -6 -51 -12 -60 -14 -8 -2 -38 8 -65 22 -30 16 -69 26 -102 27 -49 2
-81 21 -82 49 0 10 86 7 115 -4z m-2281 -587 c4 -10 21 -25 39 -33 20 -9 33
-22 35 -36 2 -13 9 -23 15 -23 15 -1 57 -35 57 -47 0 -5 11 -20 25 -33 14 -13
25 -31 25 -39 0 -9 16 -33 35 -55 21 -22 35 -49 35 -63 0 -14 9 -33 20 -43 11
-9 21 -27 23 -39 2 -12 18 -37 35 -56 18 -18 35 -47 38 -64 4 -17 11 -34 15
-37 5 -3 9 -14 9 -25 0 -10 4 -19 8 -19 4 0 8 -10 9 -22 1 -11 6 -24 10 -27
17 -13 44 -73 39 -86 -3 -8 2 -22 11 -30 19 -19 8 -34 -27 -36 -31 -2 -53 3
-62 15 -3 5 -30 17 -60 27 -48 15 -50 17 -20 18 17 1 32 6 32 12 0 8 -12 9
-37 4 -46 -8 -53 -12 -53 -31 0 -8 -4 -14 -10 -14 -14 0 -6 -43 8 -48 7 -2 12
-16 12 -32 0 -15 7 -33 15 -40 8 -7 15 -17 15 -22 0 -5 8 -20 17 -34 9 -14 17
-36 18 -47 1 -12 14 -54 29 -93 15 -40 26 -76 25 -80 -4 -22 2 -67 8 -61 3 4
12 -5 20 -20 9 -17 10 -30 4 -36 -6 -6 -2 -17 10 -31 25 -26 21 -60 -6 -64
-12 -2 -34 8 -50 22 -24 21 -27 27 -16 40 27 33 -21 194 -70 237 -13 11 -21
31 -22 54 -1 19 -5 35 -9 35 -4 0 -8 9 -8 20 0 11 -7 20 -15 20 -15 0 -49 64
-61 118 -4 15 -13 34 -21 43 -12 14 -11 17 7 22 l20 5 -21 36 c-11 20 -28 36
-37 36 -8 0 -12 3 -9 6 4 4 -3 20 -14 36 -12 16 -20 31 -18 33 20 19 92 0 127
-33 33 -31 66 -49 102 -55 14 -2 32 -7 40 -11 8 -3 22 -1 30 5 11 8 12 12 3
16 -10 3 -10 10 -2 24 14 26 4 54 -24 66 -14 7 -27 27 -36 56 -8 28 -24 55
-42 69 -20 16 -30 35 -35 66 -3 23 -10 42 -15 42 -5 0 -9 10 -9 23 0 12 -7 31
-15 41 -8 10 -12 23 -9 27 2 4 -5 13 -16 19 -11 6 -20 17 -20 24 0 7 -20 34
-45 61 -24 27 -41 53 -38 58 3 6 1 7 -4 4 -14 -9 -30 12 -35 43 -2 17 -9 25
-23 25 -26 0 -85 42 -85 61 0 22 67 19 74 -4z m-3161 -44 c17 -14 86 -145 87
-165 0 -6 4 -13 8 -15 4 -1 25 -37 46 -78 22 -41 42 -77 45 -80 4 -3 27 -41
50 -85 45 -82 147 -242 166 -260 15 -14 65 -93 65 -103 0 -4 8 -14 18 -23 9
-8 31 -32 47 -53 17 -21 50 -62 75 -91 25 -30 54 -66 65 -80 11 -15 37 -44 58
-65 20 -21 37 -41 37 -45 0 -3 66 -71 148 -150 169 -166 163 -160 222 -206 24
-19 49 -38 55 -44 86 -78 188 -157 272 -210 26 -16 54 -36 63 -43 37 -33 107
-80 129 -87 21 -6 81 -42 107 -64 7 -5 34 -21 60 -36 27 -14 56 -30 64 -35 8
-5 51 -26 95 -47 44 -21 82 -41 83 -45 2 -5 9 -8 15 -8 7 0 48 -18 92 -40 90
-44 278 -120 299 -120 14 0 93 -31 136 -54 14 -8 46 -17 72 -20 26 -4 50 -11
53 -17 4 -5 21 -9 39 -9 31 0 77 -11 121 -30 20 -9 92 -24 295 -62 102 -19
251 -37 475 -58 153 -13 534 -6 680 14 65 9 140 16 166 16 25 0 91 11 145 24
54 13 119 27 144 31 25 4 108 23 185 42 77 19 163 40 191 46 28 7 57 17 65 23
8 6 28 14 44 18 41 10 164 54 197 72 14 8 31 14 36 14 6 0 48 17 94 39 45 21
106 46 133 57 28 10 70 30 95 45 25 15 92 51 150 80 58 29 114 61 124 71 11
10 24 18 28 18 5 0 21 8 36 19 15 10 54 36 87 57 33 21 93 63 132 91 40 29 75
53 78 53 6 0 30 19 97 78 27 23 52 42 56 42 4 0 36 27 72 60 36 32 67 59 70
60 8 0 282 272 349 346 77 84 284 344 301 377 7 15 26 42 42 59 15 17 28 36
28 41 0 5 18 32 40 59 22 28 40 57 40 64 0 8 4 14 9 14 5 0 24 30 42 68 18 37
36 68 40 70 5 2 24 36 44 75 20 40 49 95 65 122 16 28 29 56 29 64 1 8 15 36
32 63 31 48 32 48 84 48 74 0 104 -35 75 -88 -5 -9 -32 -66 -60 -125 -28 -60
-71 -142 -96 -184 -24 -41 -44 -77 -44 -80 0 -3 -9 -17 -19 -32 -11 -15 -23
-39 -26 -54 -4 -15 -16 -32 -26 -38 -11 -5 -19 -16 -19 -23 0 -8 -24 -47 -53
-87 -29 -41 -68 -98 -86 -126 -19 -29 -38 -53 -43 -53 -4 0 -8 -6 -8 -13 0 -6
-18 -32 -40 -56 -22 -24 -40 -46 -40 -50 0 -3 -16 -23 -35 -45 -19 -21 -35
-41 -35 -45 0 -4 -21 -30 -47 -57 -27 -27 -73 -78 -103 -113 -95 -108 -298
-302 -436 -416 -53 -44 -111 -93 -128 -108 -17 -16 -47 -37 -66 -47 -19 -10
-57 -37 -84 -60 -27 -22 -62 -48 -77 -57 -16 -10 -29 -21 -29 -25 0 -4 -6 -8
-12 -8 -7 0 -41 -18 -76 -40 -34 -22 -65 -40 -67 -40 -3 0 -26 -15 -52 -33
-27 -19 -63 -40 -80 -47 -18 -7 -33 -16 -33 -20 0 -5 -13 -11 -30 -15 -16 -4
-32 -10 -35 -15 -6 -10 -189 -99 -315 -153 -19 -8 -60 -26 -90 -40 -30 -13
-66 -28 -80 -32 -14 -4 -30 -11 -35 -16 -6 -4 -29 -13 -50 -18 -22 -6 -74 -22
-115 -37 -77 -27 -172 -55 -270 -78 -30 -7 -64 -18 -76 -24 -12 -6 -52 -14
-90 -17 -38 -4 -82 -13 -99 -20 -16 -7 -61 -16 -100 -20 -38 -3 -92 -13 -120
-20 -27 -7 -111 -16 -185 -19 -74 -4 -153 -10 -174 -15 -53 -13 -459 -14 -522
-2 -28 6 -116 13 -195 16 -91 4 -171 14 -217 26 -40 10 -93 19 -118 19 -25 0
-57 6 -72 14 -16 8 -61 18 -102 22 -41 4 -84 13 -95 20 -11 7 -42 16 -70 19
-27 4 -59 13 -70 20 -11 6 -43 15 -70 19 -28 3 -75 16 -105 27 -30 12 -82 31
-115 41 -33 11 -73 26 -90 33 -16 7 -55 23 -85 35 -30 12 -86 37 -125 55 -38
18 -85 36 -103 40 -18 4 -36 13 -39 21 -3 8 -11 14 -19 14 -7 0 -55 23 -106
51 -51 29 -118 64 -149 80 -77 38 -184 104 -209 129 -11 11 -25 20 -31 20 -6
0 -21 8 -34 18 -12 9 -33 24 -45 32 -85 57 -257 189 -310 236 -8 8 -51 44 -95
80 -83 69 -455 442 -455 455 0 5 -10 19 -22 32 -32 33 -87 98 -128 152 -19 25
-47 60 -61 78 -14 17 -43 59 -64 92 -21 33 -47 68 -57 78 -10 10 -18 24 -18
32 0 7 -6 20 -12 27 -25 25 -110 162 -156 249 -16 31 -37 67 -46 80 -9 13 -16
31 -16 40 0 9 -6 22 -14 28 -8 7 -18 26 -21 42 -4 17 -13 33 -21 36 -8 3 -14
14 -14 24 0 11 -9 37 -20 59 -23 44 -26 90 -8 108 16 16 100 15 121 0z m2112
-25 c3 -21 12 -51 20 -66 8 -16 15 -46 15 -67 0 -21 6 -43 15 -50 8 -7 15 -22
15 -34 0 -11 6 -52 14 -89 8 -38 13 -77 11 -88 -2 -10 3 -23 12 -28 10 -5 14
-17 11 -34 -3 -17 -1 -24 8 -20 7 2 15 -6 19 -18 4 -12 23 -47 42 -77 28 -43
32 -56 22 -63 -11 -7 -11 -9 -1 -9 7 0 10 -5 6 -12 -4 -6 -3 -8 4 -4 6 3 18
-4 26 -16 20 -29 21 -68 1 -68 -8 0 -15 4 -15 9 0 6 -11 22 -25 37 -16 17 -23
34 -19 46 3 10 1 18 -5 18 -6 0 -11 9 -11 20 0 11 -4 20 -9 20 -5 0 -18 23
-30 50 -12 28 -25 50 -30 50 -4 0 -8 17 -9 37 -1 20 -6 39 -11 42 -14 9 -40
91 -34 110 4 13 3 14 -6 1 -16 -24 -20 -8 -9 36 10 36 9 45 -9 70 -11 16 -23
49 -27 74 -4 25 -10 56 -12 70 -3 14 -5 32 -6 40 -4 59 18 69 27 13z m-2532
-222 c15 -16 27 -35 27 -43 0 -7 8 -25 17 -38 28 -39 72 -133 73 -152 0 -10 3
-18 8 -18 4 0 20 -26 37 -58 16 -31 43 -78 61 -103 17 -25 35 -56 39 -70 4
-13 12 -30 18 -38 6 -7 16 -21 22 -31 5 -10 46 -71 90 -135 44 -65 89 -131 99
-149 11 -17 32 -43 48 -59 15 -15 28 -30 28 -33 0 -8 75 -100 138 -170 12 -14
22 -27 22 -29 0 -3 8 -13 18 -23 9 -10 44 -49 77 -87 107 -122 452 -455 472
-455 4 0 23 -15 51 -41 47 -43 172 -139 181 -139 5 0 23 -12 38 -26 32 -30
267 -187 306 -205 15 -7 27 -16 27 -20 0 -4 17 -16 38 -26 20 -11 88 -46 150
-77 61 -32 115 -62 118 -67 3 -5 12 -9 21 -9 9 0 24 -6 32 -14 9 -7 50 -28 91
-46 41 -17 102 -44 135 -60 33 -16 112 -47 175 -70 63 -22 138 -49 165 -59 88
-32 119 -42 175 -56 30 -7 98 -26 150 -40 131 -37 204 -54 282 -65 37 -5 97
-16 133 -25 37 -8 114 -19 173 -25 59 -5 125 -14 147 -20 105 -25 804 -19 975
9 36 6 106 15 155 21 126 13 315 46 410 70 44 12 105 27 135 35 30 7 80 22
110 32 30 11 89 28 130 38 41 10 80 21 85 26 6 4 39 17 75 29 150 52 552 229
565 250 3 6 14 10 23 10 9 1 42 16 72 35 30 19 66 39 79 45 13 6 43 23 65 38
23 16 48 31 56 34 17 6 147 91 169 110 8 6 46 33 85 59 120 81 266 191 342
257 94 82 203 183 286 266 78 78 127 130 258 275 56 62 110 131 110 139 0 6 4
12 9 14 16 5 141 170 141 185 0 7 7 13 15 13 8 0 15 6 15 13 0 12 54 96 68
107 8 6 25 32 52 83 11 20 25 37 30 37 6 0 10 9 10 19 0 11 5 23 10 26 6 4 20
25 31 48 12 23 24 44 28 47 6 5 14 19 73 130 16 30 33 62 37 70 5 8 31 61 57
117 54 112 66 123 141 123 66 0 83 -18 72 -77 -5 -26 -16 -54 -24 -63 -8 -9
-15 -21 -15 -26 0 -5 -18 -44 -40 -87 -22 -42 -40 -83 -40 -91 0 -7 -6 -18
-13 -24 -6 -6 -27 -40 -46 -76 -18 -36 -40 -71 -47 -77 -8 -6 -14 -16 -14 -21
0 -15 -113 -203 -131 -218 -3 -3 -12 -17 -20 -32 -14 -27 -85 -133 -104 -155
-14 -17 -37 -48 -90 -118 -25 -33 -51 -67 -57 -75 -7 -8 -32 -38 -55 -68 -46
-60 -168 -196 -256 -286 -31 -33 -57 -63 -57 -68 0 -4 -4 -8 -9 -8 -5 0 -53
-43 -106 -95 -54 -52 -101 -95 -106 -95 -4 0 -12 -6 -16 -13 -4 -7 -26 -27
-49 -44 -22 -18 -59 -49 -82 -70 -50 -47 -118 -101 -202 -161 -36 -26 -67 -49
-70 -52 -14 -16 -199 -136 -250 -162 -14 -7 -29 -18 -33 -25 -4 -7 -13 -13
-20 -13 -7 0 -37 -17 -68 -39 -31 -21 -66 -42 -79 -46 -13 -4 -44 -19 -69 -34
-55 -33 -294 -149 -371 -181 -30 -13 -87 -39 -127 -58 -40 -18 -87 -38 -105
-42 -18 -5 -64 -21 -103 -35 -38 -15 -88 -31 -110 -37 -22 -6 -44 -14 -50 -19
-5 -4 -28 -10 -50 -14 -22 -4 -58 -13 -80 -22 -22 -8 -67 -19 -100 -25 -32 -5
-64 -13 -70 -17 -5 -5 -26 -12 -45 -15 -19 -4 -75 -16 -125 -26 -49 -10 -115
-23 -145 -29 -30 -6 -62 -13 -70 -15 -8 -2 -55 -7 -105 -11 -49 -3 -119 -13
-155 -22 -94 -23 -950 -22 -1055 0 -38 9 -115 19 -170 23 -55 4 -113 13 -130
19 -16 7 -59 16 -95 20 -36 3 -85 12 -110 20 -25 7 -67 16 -94 20 -27 4 -59
13 -70 20 -12 7 -41 16 -65 19 -46 7 -165 41 -191 55 -9 5 -36 12 -60 16 -25
4 -54 13 -65 21 -11 7 -38 16 -60 20 -22 3 -47 12 -55 19 -8 7 -29 15 -46 18
-17 3 -65 22 -106 41 -41 20 -81 36 -89 36 -8 0 -23 6 -34 14 -11 7 -49 25
-85 41 -101 43 -174 78 -188 92 -7 7 -22 13 -31 13 -10 0 -24 7 -31 15 -6 8
-22 17 -33 21 -12 4 -33 15 -46 25 -13 11 -30 19 -37 19 -8 0 -35 15 -61 33
-60 40 -76 50 -136 85 -26 15 -75 46 -107 70 -33 23 -64 42 -69 42 -6 0 -29
18 -52 40 -23 22 -47 40 -52 40 -5 0 -40 25 -78 55 -37 30 -70 55 -72 55 -3 0
-18 11 -33 24 -16 13 -51 43 -79 66 -27 23 -72 60 -99 83 -62 54 -383 373
-415 412 -13 17 -55 64 -93 105 -121 132 -307 383 -308 418 0 6 -4 12 -9 12
-11 0 -101 132 -101 148 0 7 -4 12 -9 12 -5 0 -14 13 -21 29 -6 16 -20 37 -31
47 -10 9 -19 27 -19 40 0 12 -5 24 -11 26 -15 5 -134 224 -178 328 -6 14 -15
32 -20 40 -22 36 -51 108 -51 128 0 28 29 41 95 41 43 1 54 -3 78 -28z m5793
-188 c19 -40 34 -79 34 -88 0 -8 9 -15 20 -15 11 0 29 -14 42 -33 32 -49 110
-71 215 -60 118 13 142 2 81 -35 -36 -21 -112 -28 -151 -13 -16 6 -28 6 -36
-2 -8 -8 -11 -8 -11 2 0 7 -4 10 -9 6 -5 -3 -12 -1 -16 5 -3 5 -17 10 -31 10
-13 0 -24 4 -24 8 0 11 -56 43 -64 35 -3 -3 -6 1 -6 10 0 10 -8 26 -17 36 -41
44 -68 78 -69 87 -1 5 -9 35 -18 67 -10 31 -15 65 -11 75 6 16 8 15 22 -3 8
-11 30 -52 49 -92z m-2131 -614 c4 -11 11 -17 16 -14 5 4 9 1 9 -5 0 -6 16
-27 35 -47 19 -20 35 -39 35 -44 0 -4 13 -12 29 -17 15 -5 31 -20 34 -31 4
-18 0 -23 -24 -28 -26 -5 -29 -10 -29 -42 0 -20 7 -46 15 -58 9 -12 13 -34 11
-48 -3 -14 -1 -25 4 -25 6 0 13 -12 16 -27 4 -16 12 -31 17 -35 6 -3 12 -31
15 -61 3 -44 1 -55 -13 -60 -13 -6 -45 4 -63 18 -1 1 5 22 13 46 19 52 12 90
-21 126 -13 14 -24 36 -24 47 0 12 -7 32 -16 45 -12 16 -15 36 -11 67 3 28 0
50 -9 61 -12 17 -13 16 -14 -7 -1 -14 -4 -19 -7 -12 -3 7 -1 25 5 40 12 37 5
51 -23 46 -17 -3 -25 1 -30 17 -4 11 -4 23 -1 26 3 3 1 13 -4 23 -5 10 -7 20
-4 23 10 10 33 -4 39 -24z m-1279 -148 c25 -13 106 -94 134 -133 24 -32 30
-52 30 -90 0 -45 -4 -52 -46 -93 -41 -40 -51 -45 -92 -45 -32 0 -66 10 -104
29 l-57 29 -40 -43 c-50 -53 -71 -61 -110 -40 -55 28 -53 78 4 142 19 21 35
41 35 44 0 3 19 30 43 60 115 148 130 161 164 153 15 -4 33 -9 39 -13z m3992
-113 c57 -37 107 -68 111 -68 4 0 18 -11 31 -25 13 -14 27 -25 31 -25 4 0 22
-13 40 -29 30 -28 31 -31 19 -61 -7 -17 -20 -34 -29 -39 -28 -14 -80 -21 -86
-11 -9 15 -41 12 -56 -6 -7 -9 -23 -20 -36 -25 -19 -7 -23 -16 -23 -52 0 -51
-21 -84 -66 -103 -44 -18 -61 -10 -69 34 -3 20 -12 46 -19 57 -7 11 -16 40
-20 65 -4 24 -12 51 -19 58 -17 21 -48 127 -54 184 -4 42 -2 49 29 81 59 61
75 59 216 -35z m-3646 -137 c2 -4 37 -27 78 -49 42 -23 87 -56 100 -74 21 -28
22 -34 9 -56 -26 -46 -41 -48 -108 -15 -61 31 -61 31 -61 9 0 -13 15 -37 36
-56 31 -28 35 -37 30 -63 -13 -63 -43 -72 -106 -32 -34 22 -41 23 -46 10 -9
-23 5 -65 22 -65 23 0 64 -46 64 -71 0 -13 -9 -33 -21 -45 -29 -31 -65 -19
-203 69 l-48 30 7 50 c3 28 15 61 26 75 10 14 19 30 19 37 0 7 7 18 16 26 9 7
29 38 45 68 30 56 68 125 82 149 9 14 54 17 59 3z m3220 -52 c13 -23 29 -53
37 -68 8 -14 20 -30 28 -34 7 -4 13 -15 13 -24 0 -9 17 -41 37 -72 52 -77 73
-118 73 -139 0 -22 -36 -57 -67 -67 -26 -7 -63 2 -63 15 0 8 -33 66 -87 155
-7 11 -16 29 -22 40 -5 12 -16 27 -25 34 -9 7 -16 19 -16 27 0 7 -7 20 -16 28
-8 9 -18 32 -21 51 -5 30 -1 41 22 66 43 44 79 40 107 -12z m-258 -145 c61
-34 70 -53 68 -150 l-1 -80 50 -44 c75 -65 77 -74 28 -110 -55 -39 -85 -38
-143 5 l-46 36 0 -27 c0 -15 7 -32 16 -39 15 -11 15 -15 -6 -43 -16 -21 -36
-34 -59 -38 -30 -6 -38 -3 -63 25 -15 17 -28 41 -28 54 0 12 -7 31 -16 42 -8
11 -19 36 -25 57 -5 21 -14 38 -19 38 -4 0 -11 18 -15 39 -4 22 -13 45 -21 51
-17 15 -28 72 -20 103 4 18 23 30 78 53 40 15 84 34 98 41 38 19 73 16 124
-13z m-2479 -43 c22 -10 55 -35 73 -55 29 -34 33 -43 30 -89 -3 -48 -5 -51
-37 -59 -25 -7 -37 -5 -50 6 -10 9 -22 16 -27 16 -5 0 -16 9 -24 20 -8 11 -20
20 -28 20 -7 0 2 -15 20 -33 69 -68 78 -86 78 -146 0 -76 -25 -118 -77 -126
-21 -3 -47 -8 -57 -10 -10 -2 -42 0 -70 6 -42 7 -58 17 -88 51 -34 39 -37 49
-38 101 0 66 9 74 66 58 21 -6 39 -9 41 -7 2 2 -7 21 -22 41 -50 75 -19 180
65 217 29 13 105 7 145 -11z m2042 -93 c36 -34 31 -72 -14 -103 -21 -14 -50
-25 -65 -25 -19 0 -28 -5 -28 -15 0 -23 28 -30 74 -17 37 10 43 9 59 -9 20
-24 23 -84 5 -96 -7 -4 -29 -13 -48 -18 -24 -7 -36 -17 -38 -32 -4 -29 21 -35
70 -18 36 12 45 12 70 -1 23 -12 28 -21 28 -52 0 -35 -4 -40 -42 -59 -24 -12
-65 -25 -93 -28 -27 -4 -54 -11 -60 -15 -20 -14 -54 -18 -68 -6 -8 6 -18 25
-22 41 -3 17 -13 44 -20 60 -7 17 -16 50 -20 75 -3 24 -10 49 -14 55 -10 11
-42 150 -42 179 0 28 30 55 70 62 20 3 43 8 51 12 16 6 99 29 114 31 6 0 20
-9 33 -21z m-1563 -52 c54 -14 126 -61 126 -81 0 -6 9 -27 20 -48 23 -42 19
-72 -9 -80 -31 -8 -105 16 -140 46 -18 15 -36 28 -39 28 -34 7 -52 4 -56 -7
-3 -8 -12 -14 -21 -14 -20 0 -44 -60 -38 -94 8 -38 60 -79 92 -73 45 9 55 10
107 9 43 -2 55 -6 67 -26 15 -22 15 -26 -3 -47 -57 -70 -79 -79 -197 -79 -56
0 -65 3 -111 39 -72 57 -103 118 -103 204 0 46 4 74 14 85 8 10 17 26 21 38
10 32 56 71 111 93 61 24 87 25 159 7z m1091 -70 c26 -10 56 -36 83 -70 l42
-54 0 -89 c0 -70 -4 -95 -20 -121 -23 -37 -80 -91 -96 -92 -6 0 -40 -9 -74
-20 -75 -24 -172 -27 -193 -6 -10 11 -17 52 -22 143 -4 76 -13 140 -21 157 -8
16 -14 49 -14 73 0 48 28 82 78 95 47 12 194 2 237 -16z m-552 -3 c14 -9 45
-87 57 -142 6 -30 16 -61 22 -68 6 -7 14 -30 19 -51 4 -20 16 -68 26 -105 22
-89 15 -102 -58 -102 -50 0 -55 2 -68 30 -19 40 -27 45 -88 45 -48 0 -55 -3
-80 -35 -24 -30 -34 -35 -68 -35 -23 0 -46 5 -53 12 -17 17 -15 70 3 94 8 10
15 27 15 36 0 18 27 83 61 150 10 20 19 44 19 52 0 28 52 117 73 126 21 9 102
4 120 -7z"/>
<path d="M4508 9707 c-7 -7 -20 -16 -29 -19 -19 -7 -27 -47 -19 -96 4 -26 14
-39 45 -58 40 -23 40 -23 81 -5 31 14 42 26 47 47 10 49 -5 91 -42 119 -39 28
-63 31 -83 12z"/>
<path d="M7162 7173 c-1 -16 -13 -37 -27 -48 -14 -12 -25 -28 -25 -37 0 -9 -4
-20 -10 -23 -5 -3 -10 -17 -10 -31 0 -13 -4 -24 -9 -24 -4 0 -11 -20 -13 -45
-4 -32 -13 -53 -32 -70 -14 -13 -26 -30 -26 -37 0 -7 -11 -25 -25 -40 -14 -15
-25 -37 -25 -48 0 -12 -5 -18 -10 -15 -6 3 -14 -4 -19 -17 -9 -20 -10 -21 -10
-3 0 11 4 39 8 63 9 46 -2 65 -18 33 -13 -23 -6 -178 8 -195 6 -6 10 -30 9
-53 0 -36 34 -122 53 -131 3 -1 2 -24 -2 -50 -12 -71 0 -171 21 -182 16 -8 19
-3 25 48 4 31 12 65 17 76 5 10 12 55 15 99 5 80 10 98 39 147 11 19 14 48 11
115 -3 50 -7 102 -11 118 -6 25 0 32 25 29 8 -2 15 26 24 93 6 46 11 66 43
164 9 26 8 40 -4 62 -8 16 -16 29 -17 29 -1 0 -4 -12 -5 -27z"/>
<path d="M6740 5716 c0 -129 3 -241 6 -249 4 -13 11 -13 37 -5 18 6 38 15 45
21 17 13 15 115 -3 168 -9 24 -20 80 -24 124 -8 68 -42 175 -56 175 -3 0 -5
-105 -5 -234z"/>
<path d="M5737 6303 c-5 -77 -14 -147 -22 -167 -8 -20 -15 -60 -15 -90 l0 -54
40 -7 c21 -4 45 -3 51 1 15 9 6 216 -12 259 -6 17 -17 66 -23 110 l-12 80 -7
-132z"/>
<path d="M8217 6385 c-4 -22 -7 -74 -7 -115 -1 -41 -7 -93 -15 -115 -8 -22
-15 -68 -15 -101 l0 -62 34 -6 c59 -11 61 -7 58 107 -1 57 -9 120 -17 143 -9
22 -19 74 -23 115 -7 70 -8 72 -15 34z"/>
<path d="M10259 6811 c-34 -27 -38 -88 -36 -602 2 -442 3 -468 21 -488 39 -43
72 -35 105 26 14 27 16 999 2 1036 -5 14 -23 29 -40 35 -25 9 -34 8 -52 -7z"/>
<path d="M888 6819 c-17 -9 -18 -46 -18 -554 0 -299 3 -550 6 -559 9 -24 70
-21 97 5 l22 20 0 525 0 526 -28 24 c-30 26 -52 29 -79 13z"/>
<path d="M9212 6821 c-17 -10 -20 -291 -4 -333 14 -35 24 -40 61 -27 44 15 54
58 50 213 -4 112 -6 129 -23 142 -22 16 -64 18 -84 5z"/>
<path d="M6553 2527 c-10 -16 -3 -168 8 -189 13 -24 46 -22 86 5 31 21 33 25
32 82 0 53 -3 62 -27 81 -34 26 -88 38 -99 21z"/>
</g>
</svg>
